<svg width="128" height="71" viewBox="0 0 128 71" fill="none" xmlns="http://www.w3.org/2000/svg">
<path fill-rule="evenodd" clip-rule="evenodd" d="M106.276 31.2676C104.66 31.5844 101.009 31.6937 101.009 33.7024C101.009 35.7489 102.031 36.1757 102.116 36.4743C102.202 36.773 103.737 38.735 103.098 39.7998C102.458 40.8668 102.159 40.7386 101.776 40.7386C101.392 40.7386 100.411 40.44 100.241 41.0372C100.071 41.6345 99.4727 41.7204 98.9199 41.7204C98.3649 41.7204 94.4845 41.5922 92.4379 43.5113C92.4379 43.5113 89.025 41.4218 88.513 40.5252C88.0025 39.6301 87.7038 38.9047 86.8503 38.8625C85.9981 38.8195 86.3382 37.4124 86.4664 37.0286C86.5946 36.6448 86.5946 36.2609 86.0841 35.9623C85.5721 35.6637 84.9319 35.6637 84.7614 35.7067C84.591 35.7489 84.8044 35.2799 84.4199 34.8109C84.0375 34.3418 84.0375 33.1052 84.6762 32.7636C85.3164 32.4227 89.2399 29.8641 89.6237 29.4796C90.0075 29.0958 90.7744 28.6697 89.4955 28.1577C89.4955 28.1577 78.7558 25.1789 73.6401 19.9671C73.6401 19.9671 71.6569 17.3451 70.8907 16.8659C70.8907 16.8659 71.0502 16.5462 71.5622 16.5462C71.5622 16.5462 70.4428 15.5877 70.2192 14.788C70.2192 14.788 71.2417 14.2126 72.3284 14.3729C72.3284 14.3729 68.4676 10.9986 67.6089 9.98769C67.6089 9.98769 70.1638 10.8223 71.4027 10.5186L68.7727 6.4976C68.7727 6.4976 72.4653 7.66072 74.3116 8.77359C74.3116 8.77359 71.3269 3.7402 70.0626 2.42559C70.0626 2.42559 69.7836 1.74243 70.7698 2.47584C70.7698 2.47584 77.5992 7.23101 80.2546 7.50923C80.2546 7.50923 77.2445 2.34984 76.7398 1.11025C76.2336 -0.129343 77.4229 0.907778 77.5737 1.3637C77.7259 1.8189 82.4811 7.50923 84.9595 8.44585C84.9595 8.44585 84.5801 5.9419 84.6566 5.25874C84.7323 4.57558 85.2625 5.08175 85.2625 5.48597C85.2625 5.89018 86.6791 8.59661 87.8684 9.65922C89.0563 10.7211 90.4234 13.5543 91.5858 14.2374C91.5858 14.2374 96.8719 19.8272 101.172 20.3829C101.172 20.3829 102.133 20.5854 101.627 21.2431C101.122 21.9007 101.5 22.2802 101.754 22.5839C102.007 22.8876 103.044 24.3035 104.182 24.7084C105.32 25.1133 104.586 25.1381 104.561 25.2393C104.536 25.3406 105.826 25.7703 105.826 25.2648C105.826 24.7594 106.306 24.5817 106.963 24.4054C107.62 24.2277 109.441 23.5453 110.706 23.8745C110.706 23.8745 110.479 21.1936 108.127 20.8651C105.775 20.5359 104.409 20.7893 104.409 20.7893C104.409 20.7893 103.22 20.1572 104.561 19.9292C105.902 19.702 113.818 16.6409 115.537 15.4268C115.537 15.4268 121.785 11.102 123.049 8.75028C123.049 8.75028 123.479 8.54781 123.176 9.00301C122.873 9.4582 121.557 12.3919 121.557 12.7465C121.557 13.1012 121.608 13.5055 122.19 13.0248C122.77 12.5441 125.097 10.7743 125.604 10.4706C126.109 10.1669 125.806 10.7488 125.68 11.1027C125.553 11.4567 125.072 13.0503 125.123 13.7334L126.034 13.7079C126.034 13.7079 125.907 15.276 125.199 15.7057C125.199 15.7057 125.578 15.9584 125.959 15.8324C125.959 15.8324 125.832 18.4624 122.848 21.0428C122.848 21.0428 121.482 22.6363 122.595 22.4339C123.707 22.2314 124.39 22.4339 122.923 23.0406C121.456 23.6472 119.276 24.2518 113.91 28.0106C113.907 28.0084 108.834 31.028 106.276 31.2676Z" fill="#969696"/>
<path fill-rule="evenodd" clip-rule="evenodd" d="M0 60.1359C1.55204 59.9582 2.43913 59.8402 2.43913 58.0267V43.641C2.43913 41.6797 1.27455 41.6199 0 41.5304V40.7875H8.56426C10.1163 40.7875 15.7709 40.9055 15.7709 45.5426C15.7709 48.8412 12.6385 49.6154 11.4753 50.0007V50.0604C13.803 50.477 16.7134 51.962 16.7134 55.3509C16.7134 57.8475 14.7732 60.7608 8.92551 60.8802H0V60.1359Z" fill="#969696"/>
<path fill-rule="evenodd" clip-rule="evenodd" d="M6.87377 58.1162C6.87377 59.4534 7.37267 59.9282 8.53652 59.9282C11.5852 59.9282 11.9458 57.2837 11.9458 55.4702C11.9458 51.2198 9.50664 50.7748 7.70478 50.6852H6.87305V58.1162H6.87377ZM6.87377 49.793C10.5882 49.793 11.1978 48.5439 11.1978 45.5127C11.1978 43.4319 10.5882 41.6788 8.34279 41.6788C6.92986 41.6788 6.90145 42.4516 6.87377 43.1355V49.793Z" fill="#F4F4F4"/>
<path fill-rule="evenodd" clip-rule="evenodd" d="M24.7075 60.8801H18.0835V60.1664C19.192 60.1664 19.4964 59.0965 19.4964 58.3842V43.225C19.4964 42.898 19.4411 41.5011 18.0835 41.5011V40.7881H23.3492V58.3842C23.3492 59.2465 23.626 60.1664 24.7075 60.1664V60.8801ZM38.0568 59.6012C37.2804 60.583 36.255 61.2953 35.0081 61.2953C33.0679 61.2953 32.8457 60.0477 32.6797 59.2159C30.8778 61.1474 28.9376 61.2953 28.2726 61.2953C26.942 61.2953 25.2239 60.3747 25.2239 58.1162C25.2239 55.0252 28.7439 53.8359 32.6797 52.5569V50.3873C32.6797 48.8709 32.2915 47.7712 30.2405 47.7712C29.2427 47.7712 28.6055 48.3655 28.6055 48.8411C28.6055 49.4652 29.4372 49.7034 29.4372 50.8621C29.4372 51.3967 29.0221 52.5264 27.58 52.5264C27.2472 52.5264 25.7512 52.5263 25.7512 50.5067C25.7512 48.6335 27.497 46.8207 30.9339 46.8207C34.011 46.8207 36.4771 48.0982 36.4771 50.892V58.65C36.4771 58.8277 36.4771 59.3929 37.0874 59.3929C37.1396 59.3954 37.1917 59.386 37.2397 59.3653C37.2876 59.3446 37.3302 59.3132 37.3642 59.2735L37.6417 58.9778L38.0568 59.6012Z" fill="#969696"/>
<path fill-rule="evenodd" clip-rule="evenodd" d="M32.6521 53.5985C32.0148 53.7464 29.2705 54.6087 29.2705 57.1949C29.2705 58.117 29.6864 59.1861 30.6842 59.1861C31.6266 59.1861 32.2639 58.3835 32.6521 57.9072V53.5985Z" fill="#F4F4F4"/>
<path fill-rule="evenodd" clip-rule="evenodd" d="M49.4985 58.1746C48.2239 60.1075 46.3944 61.2954 44.2043 61.2954C40.6567 61.2954 38.2729 58.1447 38.2729 54.4886C38.2729 48.6336 42.2088 46.8216 44.814 46.8216C46.7819 46.8216 49.1096 47.9213 49.1096 50.0604C49.1096 51.962 47.4468 51.962 47.2254 51.962C45.6734 51.962 45.6734 50.5068 45.6734 48.9009C45.6734 48.0087 44.9531 47.7414 44.5365 47.7414C42.3748 47.7414 42.1811 51.3976 42.1811 52.7355C42.1811 56.8964 43.8715 59.3034 46.0339 59.3034C47.6136 59.3034 48.3346 58.4411 48.9996 57.6392L49.4985 58.1746ZM63.6963 47.8616C62.5878 48.0692 62.0612 48.1886 61.2848 48.8718C60.6752 49.4064 59.1778 50.8331 58.4575 51.7552L63.8346 59.7215C64.1114 60.1366 64.3059 60.1665 64.528 60.1665V60.8802H58.0423V60.1665C58.4305 60.1665 59.2062 60.0784 59.2062 59.6021C59.2062 59.275 58.8457 58.7113 58.5412 58.2649L55.9084 54.2817L55.2711 54.9955V58.3836C55.2711 59.6909 55.3818 59.9582 56.7124 60.1658V60.8795H50.0884V60.1658C51.1969 60.1658 51.419 59.0959 51.419 58.3836V43.2244C51.419 42.8974 51.419 41.5005 50.0884 41.5005V40.7875H55.2711V53.5985L58.8195 49.7931C59.0685 49.5258 59.4014 48.9606 59.4014 48.7232C59.4014 48.1289 59.0962 48.0692 57.7663 47.8609V47.177H63.6977V47.8616H63.6963ZM79.6879 60.8802H73.1746V60.1665C74.0893 60.0784 74.4761 59.5722 74.4761 58.4724V51.2803C74.4761 50.4479 74.4491 48.8135 72.9524 48.8135C71.8432 48.8135 70.6524 50.2687 70.6524 50.536V58.4717C70.6524 59.1556 70.7347 60.0179 72.0093 60.1658V60.8795H65.3306V60.1658C66.3277 59.9582 66.7989 59.8402 66.7989 58.3836V43.2244C66.7989 41.8275 66.4107 41.7394 65.3306 41.5005V40.7875H70.6524V49.1391C71.9823 47.4749 73.1746 46.8216 74.6152 46.8216C76.1403 46.8216 78.3296 47.7422 78.3296 51.0123V58.3836C78.3296 58.8883 78.3296 60.1658 79.6879 60.1658V60.8802ZM93.011 59.6013C92.236 60.5831 91.2098 61.2954 89.9622 61.2954C88.022 61.2954 87.7999 60.0478 87.6338 59.216C85.8327 61.1475 83.8924 61.2954 83.2268 61.2954C81.8969 61.2954 80.178 60.3748 80.178 58.1163C80.178 55.0253 83.6987 53.836 87.6331 52.5571V50.3874C87.6331 48.871 87.2463 47.7713 85.1947 47.7713C84.1962 47.7713 83.5589 48.3656 83.5589 48.8412C83.5589 49.4654 84.3913 49.7035 84.3913 50.8623C84.3913 51.3968 83.9747 52.5265 82.5334 52.5265C82.2006 52.5265 80.7039 52.5265 80.7039 50.5068C80.7039 48.6336 82.4504 46.8208 85.8873 46.8208C88.9644 46.8208 91.4305 48.0983 91.4305 50.8921V58.6501C91.4305 58.8279 91.4305 59.393 92.0394 59.393C92.0917 59.3957 92.1439 59.3863 92.192 59.3656C92.2401 59.3449 92.2828 59.3134 92.3169 59.2736L92.5944 58.9779L93.011 59.6013Z" fill="#969696"/>
<path fill-rule="evenodd" clip-rule="evenodd" d="M87.6067 53.5985C86.9694 53.7464 84.2251 54.6087 84.2251 57.1949C84.2251 58.117 84.6402 59.1861 85.6373 59.1861C86.5805 59.1861 87.2177 58.3835 87.6059 57.9072V53.5985H87.6067Z" fill="#F4F4F4"/>
<path fill-rule="evenodd" clip-rule="evenodd" d="M112.536 47.8915C112.008 48.0095 111.622 48.0692 111.15 49.378L106.854 61.2954H106.217L103.445 52.2898H103.306L99.9248 61.2954H99.2606L95.158 50.1798C94.437 48.2469 94.2986 48.0393 93.5775 47.8907V47.177H99.7311V47.8907C99.3429 47.9505 98.6772 48.0087 98.6772 48.7829C98.6772 49.4056 99.6204 51.6649 101.006 55.648L102.891 50.5651C102.613 49.5549 102.447 48.9606 102.309 48.6038C102.06 47.9811 101.754 47.981 101.089 47.8907V47.177H107.574V47.8907C106.853 47.9505 106.244 48.0087 106.244 48.6336C106.244 49.2585 107.408 53.1215 107.907 55.4405H107.963C108.71 53.1812 110.123 49.6452 110.123 48.9912C110.123 48.0393 109.57 47.981 108.794 47.8915V47.1777H112.536V47.8915ZM127.169 47.8616C126.06 48.0692 125.533 48.1886 124.757 48.8718C124.148 49.4064 122.651 50.8331 121.93 51.7552L127.307 59.7215C127.585 60.1366 127.778 60.1665 128 60.1665V60.8802H121.515V60.1665C121.903 60.1665 122.679 60.0784 122.679 59.6021C122.679 59.275 122.319 58.7113 122.013 58.2649L119.38 54.2817L118.743 54.9955V58.3836C118.743 59.6909 118.854 59.9582 120.185 60.1658V60.8795H113.56V60.1658C114.668 60.1658 114.89 59.0959 114.89 58.3836V43.2244C114.89 42.8974 114.89 41.5005 113.56 41.5005V40.7875H118.742V53.5985L122.29 49.7931C122.54 49.5258 122.873 48.9606 122.873 48.7232C122.873 48.1289 122.567 48.0692 121.238 47.8609V47.177H127.17V47.8616H127.169ZM67.4725 69.9667H66.8003V64.9938H70.2438V65.5881H67.4725V67.1132H69.9109V67.7089H67.4725V69.9667ZM77.9326 64.9938V68.2217C77.9326 69.2399 77.2953 70.0993 75.9312 70.0993C74.594 70.0993 74.0194 69.2399 74.0194 68.3113V64.9938H74.6909V68.1248C74.6909 69.2056 75.3493 69.5035 75.9509 69.5035C76.5685 69.5035 77.2611 69.2187 77.2611 68.1394V64.9945H77.9326V64.9938ZM82.5924 69.9667H81.9209V64.9938H84.2209C85.0388 64.9938 85.8552 65.2771 85.8552 66.331C85.8552 67.0651 85.4809 67.3353 85.1626 67.5218C85.4474 67.6397 85.7314 67.765 85.7583 68.4576L85.7999 69.3578C85.8071 69.6353 85.8414 69.7387 86.0504 69.856V69.9667H85.2252C85.1284 69.6623 85.1072 68.907 85.1072 68.7206C85.1072 68.3113 85.0249 67.8327 84.2209 67.8327H82.5924V69.9667Z" fill="#969696"/>
<path fill-rule="evenodd" clip-rule="evenodd" d="M82.5923 67.258H84.1516C84.6439 67.258 85.1632 67.1328 85.1632 66.3986C85.1632 65.6303 84.6024 65.5676 84.2696 65.5676H82.5923V67.258Z" fill="#F4F4F4"/>
<path fill-rule="evenodd" clip-rule="evenodd" d="M92.8772 64.9937H93.529V69.9666H92.7737L90.2458 65.9492H90.2319V69.9666H89.5801V64.9937H90.3769L92.8648 69.011H92.8772V64.9937ZM98.0977 69.9666H97.4262V64.9937H98.0977V69.9666ZM101.168 64.9937H105.206V65.588H103.524V69.9666H102.851V65.588H101.168V64.9937ZM112.407 64.9937V68.2216C112.407 69.2397 111.77 70.0991 110.404 70.0991C109.068 70.0991 108.492 69.2397 108.492 68.3111V64.9937H109.165V68.1247C109.165 69.2055 109.822 69.5034 110.425 69.5034C111.043 69.5034 111.735 69.2186 111.735 68.1392V64.9944H112.407V64.9937ZM117.067 69.9666H116.395V64.9937H118.695C119.512 64.9937 120.33 65.277 120.33 66.3308C120.33 67.065 119.955 67.3352 119.637 67.5216C119.922 67.6396 120.204 67.7649 120.233 68.4575L120.274 69.3577C120.281 69.6352 120.316 69.7386 120.523 69.8559V69.9666H119.7C119.603 69.6622 119.582 68.9069 119.582 68.7204C119.582 68.3111 119.499 67.8326 118.695 67.8326H117.067V69.9666Z" fill="#969696"/>
<path fill-rule="evenodd" clip-rule="evenodd" d="M117.066 67.258H118.626C119.118 67.258 119.637 67.1328 119.637 66.3986C119.637 65.6303 119.077 65.5676 118.744 65.5676H117.066V67.258Z" fill="#F4F4F4"/>
<path fill-rule="evenodd" clip-rule="evenodd" d="M127.991 69.9666H124.318V64.9937H127.942V65.588H124.991V67.1131H127.714V67.7088H124.991V69.3723H127.991V69.9666Z" fill="#969696"/>
</svg>
