<svg width="154" height="57" viewBox="0 0 154 57" fill="none" xmlns="http://www.w3.org/2000/svg">
<path fill-rule="evenodd" clip-rule="evenodd" d="M151.76 8.95089C151.76 8.87212 151.741 8.74277 151.853 8.73697C152.255 8.72038 152.42 8.8771 152.42 9.1814C152.42 9.55618 152.181 9.6648 151.864 9.64821L151.76 8.95089ZM111.967 15.328C108.651 15.328 107.049 17.9216 107.049 23.336C108.65 23.3957 110.253 23.5093 111.853 23.5093C113.454 23.5093 115.055 23.3957 116.658 23.336C116.659 19.9381 116.202 15.328 111.967 15.328ZM96.8842 20.4555H94.8264L94.256 17.114C94.0263 15.9051 91.3923 14.867 89.5633 14.867C86.2453 14.867 84.2435 16.1356 84.2435 18.6123C84.2435 20.4555 85.2148 21.3792 87.3895 21.8402L92.0804 22.8783C96.7154 23.9139 99.3453 25.6991 99.3453 30.4278C99.3453 37.1101 93.2246 40.2211 87.331 40.2211C84.3587 40.2211 81.3823 39.7045 78.4067 38.61L78.8084 30.4851H81.0382L81.3247 34.4609C82.9841 36.6507 85.386 37.455 88.0735 37.455C90.649 37.455 92.9949 35.8987 92.9949 33.1359C92.9949 30.5978 91.5075 29.9063 89.3921 29.3897L84.4723 28.1808C80.4694 27.1991 78.4067 24.7216 78.4067 21.0898C78.4067 14.5229 83.4985 12.1034 90.1905 12.1034C92.7661 12.1034 95.2824 12.3911 97.3427 13.4284L96.8842 20.4555ZM75.222 20.4555H73.1642L72.5938 17.114C72.3625 15.9051 69.731 14.867 67.902 14.867C64.584 14.867 62.5821 16.1356 62.5821 18.6123C62.5821 20.4555 63.5534 21.3792 65.7281 21.8402L70.4174 22.8783C75.0525 23.9139 77.684 25.6991 77.684 30.4278C77.684 37.1101 71.5632 40.2211 65.6705 40.2211C62.9616 40.2211 60.2552 39.7916 57.5454 38.8886V39.4151C55.7156 39.3571 54.1723 39.2418 52.512 39.2418C50.9111 39.2418 49.3101 39.3571 47.3074 39.4151L47.0226 38.9533L47.3074 35.3821L41.9884 39.5312C41.1299 40.2211 39.8713 40.2211 38.8408 40.2211C34.6091 40.2211 32.492 37.285 32.492 33.1906C32.492 30.9444 33.1777 28.408 35.1227 27.083C37.2398 25.6427 39.8145 24.9512 42.2732 24.4313L47.3074 23.3957C47.3074 19.3602 45.6472 16.5958 41.3587 16.5958C40.3849 16.5958 38.3831 16.8835 38.1543 17.4034L36.8982 20.2839L35.182 19.8801V15.9051L38.2111 14.0585C40.6722 12.5627 43.0165 12.1025 44.8479 12.1025C49.8797 12.1025 54.4563 14.3487 54.2867 20.5144C54.2307 22.8775 54.1147 25.2381 54.1147 27.6021C54.1147 29.9635 54.2307 32.383 54.2867 34.7461C54.3435 36.1872 54.6851 36.9923 55.8309 37.1092L56.8153 37.2062L57.1462 30.4842H59.3761L59.6617 34.4601C61.3219 36.6499 63.7246 37.4542 66.4129 37.4542C68.9877 37.4542 71.3336 35.8978 71.3336 33.1351C71.3336 30.597 69.8454 29.9055 67.7291 29.3889L62.8093 28.18C58.804 27.1983 56.7454 24.7207 56.7454 21.089C56.7454 14.522 61.8356 12.1025 68.53 12.1025C71.1048 12.1025 73.6202 12.3903 75.6789 13.4275L75.222 20.4555ZM47.3074 32.6143V25.816L44.7327 26.5067C41.7011 27.3724 39.4705 28.0067 39.4705 31.752C39.4705 34.1699 40.8426 35.208 42.5596 35.208C44.2759 35.2088 46.6209 33.7088 47.3074 32.6143ZM0 2.13435V0.00174275C3.77485 0.0589549 6.69365 0.175037 8.92431 0.175037C12.8712 0.175037 16.1299 0.0589549 20.5337 0.00174275C25.7967 -0.0554694 31.4038 1.27036 31.4038 7.77928C31.4038 13.6589 26.4848 15.6182 21.2226 17.4042C28.5435 17.808 32.72 20.3991 32.72 27.083C32.72 34.1707 26.1408 39.644 16.8189 39.4143C14.245 39.3563 11.499 39.241 8.75228 39.241C6.3504 39.241 4.00368 39.3563 1.8866 39.4143V38.0893L3.71888 37.0495C4.63337 36.533 4.86219 35.5546 4.86219 33.7685V7.95258C4.86219 5.53308 4.80622 3.97675 4.46133 3.28606C4.17653 2.70896 3.60611 2.42207 2.11872 2.30516L0 2.13435ZM12.928 3.11276V16.1928H14.6458C19.736 16.1928 22.9372 14.6373 22.9372 9.0479C22.9372 4.55218 20.5937 2.88225 16.4189 2.88225C15.2747 2.88225 14.1289 2.93864 12.928 3.11276ZM151.76 9.78337C151.939 9.78337 152.037 9.76927 152.111 9.85799C152.161 9.92018 152.233 10.0785 152.303 10.2469C152.376 10.4144 152.452 10.5827 152.506 10.6614L153.056 10.7502C152.963 10.6391 152.921 10.6175 152.879 10.5545C152.816 10.4658 152.746 10.3033 152.699 10.2079C152.612 10.0114 152.499 9.75269 152.271 9.71206C152.562 9.65817 152.811 9.45916 152.811 9.12916C152.808 9.04509 152.787 8.96271 152.747 8.88868C152.707 8.81465 152.651 8.75103 152.583 8.70297C152.415 8.59767 152.171 8.60927 151.98 8.60927H151.136C151.359 8.72536 151.374 8.75023 151.374 8.88787V10.4882L151.13 10.6399L152 10.751C151.775 10.6291 151.76 10.5827 151.76 10.4666V9.78337ZM152.025 8.05374C152.927 8.05374 153.653 8.79915 153.653 9.73694C153.653 10.6606 152.921 11.416 152.025 11.416C151.136 11.416 150.411 10.6606 150.411 9.73694C150.411 8.80496 151.13 8.05374 152.025 8.05374ZM152.025 7.73948C150.964 7.73948 150.101 8.63746 150.101 9.74191C150.101 10.8389 150.964 11.7311 152.025 11.7311C153.093 11.7311 153.963 10.8389 153.963 9.74191C153.963 8.63166 153.093 7.73948 152.025 7.73948ZM12.928 19.1902V36.0156C14.073 36.2469 14.9306 36.2469 16.018 36.2469C22.1387 36.2469 24.1406 32.6143 24.1406 27.544C24.1406 21.0907 20.4818 19.1902 14.6458 19.1902H12.928ZM126.499 32.9037V17.9788L123.224 18.1844C123.679 19.366 123.924 20.7225 123.924 22.244V25.2381C120.834 26.1029 117.401 26.3931 114.886 26.3931H107.394C107.394 31.9825 110.538 36.13 116.487 36.13C118.376 36.13 120.834 35.2088 122.665 34.1135L123.352 34.9783L122.095 37.7444C118.661 39.5876 116.316 40.2202 112.943 40.2202C104.591 40.2202 99.9577 35.1516 99.9577 26.9105C99.9577 22.1835 100.587 17.9216 105.392 15.0403L108.082 13.4275C109.509 12.5635 111.056 12.1025 112.77 12.1025C117.321 12.1025 121.073 13.8438 122.838 17.3113V16.9432L126.613 14.4665V11.0089C126.613 9.22202 126.5 7.49239 126.385 5.70638C128.903 4.78518 131.647 3.63016 133.364 2.82504L134.167 3.39965C133.708 5.70555 133.48 8.58606 133.48 11.2385V14.5801L139.999 14.2335L139.927 14.8371L140.497 14.4665V11.0089C140.497 9.22202 140.381 7.49239 140.269 5.70638C142.784 4.78518 145.532 3.63016 147.247 2.82504L148.046 3.39965C147.591 5.70555 147.363 8.58606 147.363 11.2385V14.5801L153.884 14.2335L153.425 17.9788H147.363V31.6931C147.363 34.6342 148.334 35.4393 150.908 35.4393C152.111 35.4393 152.741 35.0944 153.54 34.6914L154 35.7859L151.196 39.1838C150.796 39.7053 149.535 40.2219 147.706 40.2219C142.501 40.2219 140.384 38.091 140.384 32.9054V17.9805L136.725 18.2101V17.9805H133.483V31.6948C133.483 34.6358 134.454 35.441 137.028 35.441C138.231 35.441 138.859 35.096 139.661 34.6931L140.118 35.7875L137.314 39.1855C136.913 39.707 135.657 40.2236 133.824 40.2236C128.613 40.2211 126.499 38.0893 126.499 32.9037ZM1.71374 46.8768H151.092V51.6818H1.71374V46.8768ZM1.71374 54.7704H151.092V57H1.71374V54.7704Z" fill="#969696"/>
</svg>
