<svg width="180" height="70" viewBox="0 0 180 70" fill="none" xmlns="http://www.w3.org/2000/svg">
<path fill-rule="evenodd" clip-rule="evenodd" d="M3.90524 25.3113H12.0914L9.44773 39.0664H17.3947L16.1311 45.6397H0L3.90524 25.3113ZM20.9656 29.8515H32.803L31.9807 34.1293H26.3874L26.091 35.6787H31.1647L30.3858 39.73H25.3132L24.9967 41.3725H30.7339L29.9148 45.6397H17.9334L20.9656 29.8515ZM35.2488 29.8515H42.1354L42.909 35.5729C42.982 35.9888 43.0498 36.4947 43.1111 37.0947C43.1598 37.7192 43.1439 38.4589 43.0603 39.313H43.181C43.7271 37.8599 44.2647 36.6545 44.7928 35.6977L47.898 29.8526H54.6522L44.8881 45.6397H38.9688L35.2488 29.8515ZM57.0409 29.8515H63.483L60.4498 45.6397H54.0077L57.0409 29.8515ZM69.3863 35.0172H65.8557L66.8495 29.8515H80.2692L79.2775 35.0172H75.7289L73.6885 45.6397H67.3459L69.3863 35.0172ZM88.4247 34.56H82.2451L83.1499 29.8515H99.4377L89.6576 40.7777H96.4712L95.543 45.6397H78.3906L88.4247 34.56ZM14.7997 26.7464L13.8673 24.1058H15.3659L15.5321 24.6974C15.5903 24.908 15.6347 25.1208 15.6633 25.3356C15.6961 25.2097 15.7363 25.0996 15.7882 25.0022C15.8305 24.9102 15.876 24.8202 15.9237 24.7324L16.2581 24.1069H17.9101L16.1935 26.7718L15.9035 28.6228H14.4991L14.7997 26.7464ZM20.5041 28.7445C19.958 28.7445 19.5135 28.5678 19.1706 28.2143C18.7917 27.8132 18.5991 27.2829 18.5907 26.6268C18.5907 25.9463 18.7642 25.3674 19.1124 24.8816C19.5368 24.3016 20.0988 24.0074 20.7973 24C21.3878 24.0053 21.8535 24.2 22.1953 24.5863C22.5403 24.9758 22.7139 25.487 22.7171 26.1167C22.7171 26.7961 22.5435 27.3771 22.1953 27.8608C21.7709 28.446 21.2079 28.7403 20.5041 28.7445ZM20.7137 25.4954C20.6086 25.4949 20.505 25.5194 20.4113 25.5669C20.3177 25.6144 20.2366 25.6835 20.175 25.7685C20.03 25.9452 19.957 26.1749 19.957 26.4553C19.957 26.6903 20.0162 26.8808 20.1337 27.0258C20.2427 27.175 20.3962 27.248 20.592 27.248C20.6998 27.2471 20.8057 27.2198 20.9005 27.1685C20.9953 27.1172 21.0762 27.0435 21.1359 26.9538C21.2784 26.7519 21.3529 26.5098 21.3487 26.2627C21.3434 26.032 21.2852 25.8468 21.1719 25.705C21.1149 25.6394 21.0445 25.5868 20.9655 25.5506C20.8864 25.5145 20.8006 25.4957 20.7137 25.4954ZM26.0815 24.1058L25.7439 26.3008C25.6889 26.6014 25.6624 26.8088 25.6624 26.922C25.6624 27.1665 25.7577 27.2904 25.9492 27.2904C26.091 27.2904 26.1895 27.2142 26.2487 27.0607C26.3006 26.9072 26.3482 26.6818 26.3906 26.3834L26.7398 24.1048H28.1336L27.7431 26.6215C27.6648 27.1919 27.5325 27.6322 27.3452 27.9444C27.0086 28.4704 26.5345 28.735 25.9207 28.7434C24.838 28.7223 24.2887 28.1741 24.275 27.0924C24.275 26.8416 24.313 26.4892 24.3903 26.0362L24.6898 24.1048H26.0815V24.1058ZM29.3539 24.181H30.0249V25.9156H29.3539V24.181ZM31.896 24.1058H33.3015L32.7956 27.2332H33.982L33.765 28.6217H31.1943L31.896 24.1058ZM35.869 24.1058H37.2776L36.7717 27.2332H37.9581L37.7401 28.6217H35.1726L35.869 24.1058ZM42.6899 24.1058H44.0975L43.5916 27.2332H44.778L44.56 28.6217H41.9914L42.6899 24.1058ZM47.9816 28.7445C47.4355 28.7445 46.992 28.5678 46.647 28.2143C46.2703 27.8132 46.0776 27.2829 46.0692 26.6268C46.0692 25.9463 46.2417 25.3674 46.5909 24.8816C47.0164 24.3016 47.5773 24.0074 48.2758 24C48.8653 24.0053 49.3299 24.2 49.6728 24.5863C50.0189 24.9758 50.1914 25.487 50.1945 26.1167C50.1945 26.7961 50.021 27.3771 49.6728 27.8608C49.2484 28.446 48.6854 28.7403 47.9816 28.7445ZM48.1911 25.4954C48.0861 25.4949 47.9825 25.5194 47.8888 25.5669C47.7951 25.6144 47.7141 25.6835 47.6524 25.7685C47.5074 25.9452 47.4344 26.1749 47.4344 26.4553C47.4344 26.6903 47.4916 26.8808 47.6112 27.0258C47.7202 27.175 47.8736 27.248 48.0684 27.248C48.1762 27.2471 48.2821 27.2198 48.3769 27.1685C48.4717 27.1172 48.5526 27.0435 48.6123 26.9538C48.7548 26.7519 48.8293 26.5098 48.8251 26.2627C48.8198 26.032 48.7616 25.8468 48.6483 25.705C48.5915 25.6394 48.5213 25.5868 48.4424 25.5507C48.3636 25.5145 48.2779 25.4957 48.1911 25.4954ZM51.6191 24.1058H52.996L53.1335 25.5219C53.1663 25.8563 53.1865 26.2056 53.1939 26.5675C53.2679 26.2447 53.3685 25.9166 53.4965 25.5822L54.0617 24.1048H55.573L53.4965 28.6207H52.2625L51.6191 24.1058ZM56.8419 24.1058H59.4475L59.2623 25.3303H58.0241L57.9532 25.7674H59.1195L58.9427 26.9115H57.7796L57.7045 27.3972H59.0528L58.8655 28.6217H56.1455L56.8419 24.1058ZM64.0756 24.1058H65.4758L64.7731 28.6217H63.3708L64.0756 24.1058ZM67.5152 25.4785H66.7035L66.9215 24.1058H69.9081L69.6964 25.4785H68.909L68.419 28.6217H67.0072L67.5152 25.4785ZM75.1415 24.1058H76.6507L77.1439 28.6217H75.7924L75.766 28.0217H74.8505L74.6452 28.6217H73.1604L75.1415 24.1058ZM75.713 26.9517L75.6961 26.467C75.6844 26.2665 75.6791 26.0656 75.6802 25.8648L75.6834 25.5505C75.6283 25.7696 75.5655 25.9867 75.495 26.2013L75.2262 26.9506H75.713V26.9517ZM79.3071 25.4785H78.4943L78.7113 24.1058H81.699L81.4862 25.4785H80.6988L80.2088 28.6217H78.7981L79.3071 25.4785ZM110.221 32.1386C111.579 32.1386 112.509 32.1195 113.012 32.0782C113.012 32.7894 113.025 33.7451 113.049 34.9484C113.012 35.0278 112.929 35.0733 112.801 35.086C112.673 35.1104 112.541 35.0899 112.427 35.0278C112.282 33.888 111.86 33.2435 111.171 33.0921C110.63 32.9756 110.077 32.9188 109.524 32.9228H108.517C108.129 32.9112 107.895 32.9598 107.819 33.072C107.721 33.198 107.68 33.5345 107.693 34.0838V37.6853C107.693 37.9287 107.717 38.0758 107.769 38.1213C107.827 38.1869 107.957 38.2208 108.161 38.2208H109.321C110.159 38.2356 110.721 38.188 111.008 38.0822C111.295 37.989 111.468 37.7435 111.525 37.3382L111.679 36.6545C111.721 36.614 111.77 36.5826 111.824 36.5624C111.878 36.5421 111.936 36.5335 111.994 36.537C112.122 36.5497 112.213 36.5973 112.263 36.6735C112.22 37.3398 112.201 38.0073 112.204 38.6748C112.204 39.4167 112.223 40.1078 112.263 40.746C112.213 40.8243 112.122 40.8635 111.994 40.8635C111.88 40.8707 111.768 40.8353 111.679 40.764L111.525 39.9829C111.467 39.5903 111.295 39.3363 111.008 39.2241C110.722 39.131 110.159 39.0918 109.321 39.1045H108.161C107.957 39.1045 107.827 39.1257 107.769 39.1648C107.717 39.2368 107.693 39.3987 107.693 39.6485V42.4435C107.693 43.4564 107.765 44.0871 107.914 44.3284C108.055 44.5803 108.35 44.7041 108.794 44.7041L109.619 44.8036C109.699 44.8714 109.738 44.973 109.738 45.1095C109.712 45.2502 109.658 45.3413 109.58 45.3804C108.565 45.3505 107.55 45.3339 106.535 45.3307C105.654 45.3307 104.755 45.3476 103.841 45.3804C103.763 45.3413 103.724 45.2481 103.724 45.1053C103.724 44.9687 103.75 44.8671 103.802 44.7994L104.232 44.7369C104.691 44.7105 104.991 44.5718 105.129 44.3231C105.264 44.0797 105.332 43.4511 105.332 42.4361V35.0035C105.332 33.9822 105.264 33.3472 105.129 33.0974C104.991 32.8402 104.691 32.7058 104.232 32.6921L103.976 32.6529C103.922 32.5576 103.895 32.45 103.895 32.3407C103.895 32.2063 103.935 32.1185 104.015 32.0782C104.839 32.1141 105.664 32.131 106.489 32.129L110.221 32.1386ZM123.279 42.1684C123.279 42.7843 123.307 43.3093 123.363 43.7336C123.424 44.2025 123.572 44.4449 123.806 44.4597C124.122 44.4597 124.428 44.4099 124.725 44.3104C124.823 44.3665 124.875 44.4692 124.875 44.6163C124.877 44.6985 124.858 44.7799 124.819 44.8523C124.779 44.9246 124.722 44.9852 124.651 45.028C124.168 45.0714 123.593 45.1603 122.927 45.2947C122.616 45.347 122.308 45.4173 122.006 45.5053C121.736 45.5993 121.473 45.7085 121.216 45.8323C121.11 45.8037 121.047 45.7328 121.019 45.6196C121.073 45.3423 121.095 45.0777 121.082 44.8301C121.069 44.6671 120.999 44.5867 120.877 44.5867C120.435 44.8639 119.986 45.1052 119.526 45.3106C119.038 45.5027 118.521 45.6076 117.997 45.6207C117.068 45.6037 116.424 45.3518 116.058 44.8534C115.665 44.3485 115.475 43.6522 115.491 42.7579V39.4072C115.491 38.6759 115.452 38.1975 115.378 37.971C115.311 37.7647 115.138 37.6345 114.871 37.5784L114.585 37.5022C114.515 37.4113 114.48 37.2981 114.487 37.1836C114.487 37.0513 114.535 36.973 114.626 36.9455C115.992 36.8873 116.962 36.7592 117.538 36.5613C117.652 36.5825 117.725 36.646 117.751 36.7518C117.71 36.973 117.689 37.5826 117.689 38.5817V41.889C117.674 42.5356 117.777 43.0986 117.999 43.5823C118.131 43.8225 118.313 44.0056 118.541 44.1337C118.774 44.2829 119.074 44.357 119.434 44.357C119.965 44.357 120.432 44.175 120.835 43.813C120.936 43.696 121.007 43.5561 121.041 43.4056C121.076 43.1417 121.089 42.8757 121.083 42.6097V39.35C121.083 38.6907 121.035 38.2526 120.938 38.0398C120.814 37.8472 120.549 37.7107 120.148 37.626L119.807 37.5181C119.735 37.4461 119.699 37.3403 119.699 37.1974C119.699 37.0863 119.741 36.9953 119.825 36.9328C120.508 36.9088 121.19 36.8668 121.87 36.8069C122.488 36.737 122.907 36.6534 123.135 36.555C123.245 36.5772 123.313 36.6397 123.339 36.7476C123.3 37.1656 123.279 37.7731 123.279 38.5732V42.1684ZM126.538 39.5998C126.538 39.1352 126.516 38.7912 126.474 38.5722C126.433 38.3721 126.275 38.2039 126.007 38.062L125.745 37.9033C125.713 37.8226 125.698 37.736 125.703 37.6493C125.7 37.5654 125.726 37.483 125.775 37.4154C126.797 37.0704 127.679 36.6841 128.425 36.2576C128.564 36.2576 128.661 36.3222 128.714 36.4481C128.686 36.8799 128.673 37.2027 128.673 37.4133C128.673 37.5826 128.743 37.6673 128.89 37.6673C129.227 37.4133 129.573 37.1625 129.922 36.9148C130.258 36.6979 130.604 36.5783 130.956 36.5571C131.721 36.6068 132.109 36.9561 132.124 37.6048C132.109 38.006 131.99 38.3139 131.762 38.5245C131.54 38.7368 131.243 38.8547 130.936 38.8537C130.733 38.8548 130.535 38.7943 130.367 38.6801C130.113 38.5065 129.904 38.3912 129.739 38.3372C129.55 38.3129 129.422 38.2959 129.357 38.2959C128.914 38.2959 128.708 38.8124 128.737 39.8485V42.7801C128.722 43.559 128.771 44.066 128.89 44.2999C128.987 44.556 129.211 44.6904 129.562 44.7031L130.389 44.7877C130.473 44.8576 130.517 44.9634 130.517 45.1063C130.488 45.2513 130.432 45.3465 130.347 45.3899C129.428 45.3591 128.508 45.3411 127.588 45.336C126.908 45.336 126.176 45.355 125.395 45.3899C125.302 45.3465 125.259 45.2513 125.259 45.1063C125.259 44.9634 125.292 44.8587 125.354 44.7877L125.729 44.7253C126.091 44.6756 126.32 44.5327 126.415 44.2977C126.497 44.0639 126.54 43.5559 126.54 42.7727V39.5998H126.538ZM135.671 42.7727C135.656 43.5537 135.706 44.0607 135.825 44.2956C135.923 44.5517 136.14 44.701 136.478 44.7444L136.799 44.7856C136.884 44.8555 136.927 44.9613 136.927 45.1042C136.898 45.2492 136.842 45.3444 136.758 45.3878C136.013 45.3518 135.269 45.3338 134.523 45.3338C133.87 45.3338 133.105 45.3529 132.235 45.3878C132.151 45.3444 132.109 45.2492 132.109 45.1042C132.109 44.9613 132.138 44.8565 132.196 44.7856L132.663 44.7232C133.021 44.6735 133.25 44.5306 133.347 44.2956C133.429 44.0617 133.47 43.5558 133.47 42.7737V39.6114C133.47 39.1426 133.449 38.7986 133.408 38.5775C133.367 38.3785 133.209 38.207 132.939 38.0673L132.681 37.9086C132.648 37.8274 132.633 37.74 132.638 37.6525C132.638 37.5593 132.659 37.481 132.702 37.4186C133.65 37.118 134.568 36.7289 135.443 36.2565C135.58 36.2714 135.671 36.3264 135.712 36.4259C135.686 36.8767 135.671 37.2069 135.671 37.4196C135.671 37.5456 135.735 37.6186 135.868 37.6324C136.339 37.335 136.789 37.082 137.215 36.8757C137.607 36.683 138.119 36.5762 138.75 36.555C139.609 36.5762 140.249 36.8418 140.677 37.353C141.067 37.8864 141.262 38.5806 141.262 39.4411V42.7727C141.247 43.5537 141.297 44.0607 141.407 44.2946C141.511 44.5306 141.732 44.6724 142.068 44.7221L142.554 44.7846C142.639 44.8544 142.682 44.9603 142.682 45.1031C142.651 45.2481 142.595 45.3434 142.513 45.3868C141.718 45.3524 140.923 45.3344 140.127 45.3328C139.439 45.3328 138.726 45.3518 137.978 45.3868C137.895 45.3434 137.852 45.2481 137.852 45.1031C137.852 44.9603 137.88 44.8555 137.939 44.7846L138.257 44.7433C138.609 44.6999 138.838 44.5507 138.941 44.2946C139.023 44.0586 139.065 43.5506 139.065 42.7695V39.803C139.065 39.2262 138.943 38.7574 138.701 38.3954C138.434 38.0335 137.987 37.844 137.367 37.8292C136.677 37.8578 136.209 38.0832 135.97 38.5034C135.86 38.6727 135.78 38.8463 135.732 39.0241C135.691 39.1955 135.67 39.4834 135.67 39.8877V42.7727H135.671ZM146.711 42.7727C146.699 43.5537 146.748 44.0649 146.866 44.2977C146.963 44.5338 147.178 44.6756 147.514 44.7232L147.897 44.7877C147.981 44.8576 148.025 44.9634 148.025 45.1042C147.996 45.2513 147.938 45.3465 147.855 45.3899C146.361 45.3183 144.864 45.3183 143.37 45.3899C143.277 45.3465 143.231 45.2513 143.231 45.1042C143.231 44.9634 143.264 44.8587 143.329 44.7877L143.703 44.7232C144.063 44.6756 144.293 44.5327 144.387 44.2977C144.472 44.0617 144.513 43.5537 144.513 42.7727V39.6019C144.513 39.1331 144.492 38.787 144.449 38.5658C144.409 38.3669 144.252 38.1975 143.982 38.0557L143.721 37.8948C143.688 37.8138 143.673 37.7263 143.678 37.6387C143.678 37.5477 143.699 37.4694 143.743 37.4048C144.907 37.0291 145.818 36.6396 146.484 36.2407C146.541 36.2459 146.596 36.2639 146.646 36.2931C146.695 36.3224 146.737 36.3623 146.769 36.41C146.73 37.2885 146.71 38.1679 146.711 39.0474V42.7727ZM145.593 33.689C145.181 33.689 144.855 33.5514 144.615 33.2731C144.369 33.0297 144.244 32.7132 144.244 32.3185C144.244 31.9206 144.368 31.5925 144.615 31.3364C144.855 31.0855 145.181 30.9606 145.593 30.9606C145.998 30.9606 146.326 31.0866 146.581 31.3364C146.823 31.5925 146.941 31.9206 146.941 32.3185C146.941 32.7132 146.823 33.0286 146.581 33.2731C146.327 33.5514 145.998 33.689 145.593 33.689ZM152.288 37.8028C152.101 37.8028 151.997 37.8313 151.969 37.8874C151.913 37.9954 151.884 38.2123 151.884 38.5362V41.8625C151.87 42.5504 151.963 43.142 152.164 43.6405C152.356 44.1506 152.782 44.4131 153.437 44.4279C153.815 44.4279 154.152 44.2956 154.45 44.0332C154.665 44.0617 154.751 44.2088 154.719 44.4692C154.512 44.7645 154.183 45.0269 153.73 45.2566C153.271 45.4884 152.709 45.6101 152.043 45.627C151.568 45.627 151.171 45.5445 150.85 45.3815C150.559 45.2826 150.306 45.0927 150.131 44.8396C149.953 44.5827 149.837 44.2888 149.79 43.9802C149.719 43.6402 149.684 43.2936 149.686 42.9463V38.5785C149.686 38.2102 149.671 37.9816 149.645 37.8885C149.589 37.8324 149.476 37.8038 149.304 37.8038H148.558C148.443 37.7319 148.389 37.6366 148.389 37.517C148.379 37.4638 148.384 37.4091 148.403 37.3583C148.421 37.3076 148.453 37.2627 148.495 37.2281C149.187 36.9487 149.741 36.6449 150.158 36.3211C150.371 36.156 150.584 35.9634 150.797 35.7422C150.988 35.521 151.164 35.267 151.32 34.9728C151.43 34.9082 151.544 34.8881 151.659 34.9082C151.77 34.9368 151.852 34.9929 151.904 35.0797V36.3804C151.892 36.5433 151.913 36.6513 151.969 36.701C152.01 36.7592 152.124 36.7857 152.308 36.7857H154.407C154.517 36.8577 154.57 37.0132 154.57 37.2471C154.558 37.5054 154.462 37.6916 154.293 37.8049H152.288V37.8028ZM163.744 42.1684C163.744 42.7843 163.77 43.3093 163.827 43.7336C163.889 44.2025 164.035 44.4449 164.271 44.4597C164.585 44.4597 164.893 44.4099 165.189 44.3104C165.288 44.3665 165.336 44.4692 165.336 44.6163C165.339 44.6984 165.32 44.7797 165.281 44.8521C165.242 44.9244 165.185 44.9851 165.115 45.028C164.629 45.0714 164.056 45.1603 163.393 45.2947C163.081 45.347 162.772 45.4173 162.469 45.5053C162.199 45.5997 161.935 45.7089 161.677 45.8323C161.576 45.8037 161.51 45.7328 161.482 45.6196C161.538 45.3423 161.559 45.0777 161.547 44.8301C161.53 44.6671 161.464 44.5867 161.338 44.5867C160.898 44.8639 160.449 45.1052 159.989 45.3106C159.502 45.5029 158.985 45.6078 158.462 45.6207C157.534 45.6037 156.885 45.3518 156.521 44.8534C156.128 44.3485 155.94 43.6522 155.955 42.7579V39.4072C155.955 38.6759 155.916 38.1975 155.841 37.971C155.774 37.7647 155.605 37.6345 155.337 37.5784L155.048 37.5022C154.983 37.4281 154.952 37.3202 154.952 37.1836C154.952 37.0513 154.998 36.973 155.091 36.9455C156.455 36.8873 157.427 36.7592 157.999 36.5613C158.117 36.5825 158.188 36.646 158.216 36.7518C158.173 36.973 158.152 37.5826 158.152 38.5817V41.889C158.137 42.5356 158.241 43.0986 158.464 43.5823C158.596 43.8225 158.776 44.0056 159.004 44.1337C159.24 44.2829 159.537 44.357 159.897 44.357C160.428 44.357 160.897 44.175 161.298 43.813C161.401 43.697 161.472 43.5568 161.505 43.4056C161.531 43.2447 161.548 42.978 161.548 42.6097V39.35C161.548 38.6907 161.498 38.2526 161.401 38.0398C161.277 37.8472 161.015 37.7107 160.611 37.626L160.271 37.5181C160.199 37.4461 160.163 37.3403 160.163 37.1974C160.163 37.0863 160.206 36.9953 160.291 36.9328C160.973 36.9087 161.655 36.8667 162.335 36.8069C162.949 36.737 163.373 36.6534 163.598 36.555C163.708 36.5772 163.776 36.6397 163.804 36.7476C163.765 37.1656 163.744 37.7731 163.744 38.5732V42.1684ZM167.002 39.5998C167.002 39.1352 166.979 38.7912 166.937 38.5722C166.898 38.3721 166.74 38.2039 166.468 38.062L166.21 37.9033C166.177 37.8228 166.162 37.7361 166.167 37.6493C166.167 37.5583 166.191 37.48 166.238 37.4154C167.262 37.0704 168.145 36.6841 168.891 36.2576C168.953 36.2551 169.014 36.2721 169.066 36.3063C169.118 36.3405 169.157 36.3901 169.18 36.4481C169.151 36.8799 169.134 37.2027 169.134 37.4133C169.134 37.5826 169.208 37.6673 169.351 37.6673C169.69 37.4133 170.034 37.1625 170.387 36.9148C170.724 36.6979 171.07 36.5783 171.419 36.5571C172.182 36.6068 172.573 36.9561 172.585 37.6048C172.573 38.006 172.453 38.3139 172.225 38.5245C172.003 38.7365 171.707 38.8543 171.399 38.8537C171.196 38.8545 170.998 38.794 170.831 38.6801C170.577 38.5065 170.366 38.3912 170.202 38.3372C170.016 38.3129 169.888 38.2959 169.82 38.2959C169.378 38.2959 169.171 38.8124 169.2 39.8485V42.7801C169.185 43.559 169.239 44.066 169.353 44.2999C169.453 44.556 169.674 44.6904 170.025 44.7031L170.85 44.7877C170.936 44.8576 170.98 44.9634 170.98 45.1063C170.951 45.2513 170.895 45.3465 170.81 45.3899C169.891 45.3591 168.971 45.3411 168.051 45.336C167.371 45.336 166.642 45.355 165.859 45.3899C165.77 45.3465 165.722 45.2513 165.722 45.1063C165.722 44.9634 165.753 44.8587 165.819 44.7877L166.194 44.7253C166.554 44.6756 166.781 44.5327 166.878 44.2977C166.96 44.0639 167.004 43.5559 167.004 42.7727V39.5998H167.002ZM174.761 40.2295C174.577 40.2295 174.458 40.2359 174.404 40.2507C174.347 40.2941 174.319 40.3787 174.319 40.5068C174.319 41.4974 174.623 42.3134 175.228 42.9579C175.805 43.6299 176.561 43.9728 177.503 43.9876C178.363 44.0162 179.041 43.6585 179.535 42.9145C179.589 42.9003 179.644 42.8988 179.698 42.91C179.752 42.9212 179.802 42.9448 179.845 42.9791C179.893 43.0084 179.931 43.0493 179.958 43.0978C179.986 43.1463 180 43.2008 180 43.2563C179.842 43.652 179.619 44.0186 179.341 44.3411C179.075 44.6256 178.768 44.8695 178.432 45.065C177.772 45.4333 177.107 45.6185 176.432 45.6185C175.196 45.6016 174.216 45.1931 173.495 44.3845C172.754 43.5929 172.373 42.5716 172.352 41.3249C172.352 40.0496 172.747 38.9479 173.537 38.0197C174.3 37.0767 175.391 36.5867 176.813 36.5518C177.626 36.5518 178.349 36.7973 178.988 37.2852C179.633 37.7879 179.964 38.5108 179.979 39.4516C179.979 39.6294 179.944 39.7967 179.875 39.9543C179.745 40.1364 179.257 40.2295 178.414 40.2295H174.761ZM176.698 39.3744C177.275 39.3744 177.622 39.3246 177.739 39.2252C177.876 39.1257 177.944 38.9733 177.944 38.7658C177.944 38.369 177.83 38.0324 177.605 37.7551C177.371 37.5128 177.022 37.3847 176.555 37.3731C176.208 37.3731 175.9 37.4429 175.638 37.5837C175.38 37.7095 175.151 37.8876 174.965 38.1065C174.595 38.5616 174.41 38.9331 174.41 39.2252C174.395 39.3246 174.501 39.3744 174.72 39.3744H176.698Z" fill="#969696"/>
</svg>
