<svg width="180" height="70" viewBox="0 0 180 70" fill="none" xmlns="http://www.w3.org/2000/svg">
<path fill-rule="evenodd" clip-rule="evenodd" d="M178.663 39.5829C178.439 39.5829 178.219 39.6392 178.005 39.755C177.789 39.8707 177.627 40.0315 177.505 40.2486C177.388 40.4501 177.326 40.6787 177.325 40.9115C177.324 41.1443 177.384 41.3734 177.499 41.576C177.619 41.79 177.784 41.9539 177.996 42.0697C178.208 42.1874 178.431 42.2479 178.662 42.2479C178.894 42.2479 179.114 42.1874 179.328 42.0697C179.538 41.9539 179.706 41.79 179.824 41.576C179.941 41.364 180 41.1438 180 40.9143C180 40.6819 179.937 40.4606 179.82 40.2486C179.706 40.0384 179.533 39.8665 179.322 39.755C179.12 39.6426 178.894 39.5834 178.663 39.5829Z" fill="#969696"/>
<path fill-rule="evenodd" clip-rule="evenodd" d="M178.663 39.8226C178.848 39.8226 179.027 39.8708 179.201 39.9629C179.377 40.0613 179.511 40.1934 179.609 40.3685C179.706 40.5437 179.757 40.727 179.757 40.9144C179.757 41.1019 179.707 41.2842 179.613 41.4562C179.518 41.6277 179.377 41.7684 179.205 41.8618C179.04 41.956 178.853 42.0056 178.663 42.0056C178.473 42.0056 178.286 41.956 178.121 41.8618C177.949 41.7698 177.808 41.6286 177.717 41.4562C177.619 41.2842 177.568 41.1019 177.568 40.9144C177.568 40.727 177.619 40.5447 177.717 40.3685C177.815 40.1924 177.952 40.0602 178.125 39.9629C178.3 39.8708 178.48 39.8226 178.663 39.8226Z" fill="white"/>
<path fill-rule="evenodd" clip-rule="evenodd" d="M178.076 41.6549H178.319V41.0271H178.456C178.536 41.0271 178.598 41.0435 178.64 41.0814C178.7 41.1295 178.782 41.2412 178.884 41.4214L179.018 41.656H179.3L179.123 41.3661C179.063 41.2617 178.992 41.1639 178.911 41.0742C178.876 41.0407 178.835 41.0143 178.79 40.9964C178.901 40.9926 179.008 40.9469 179.088 40.8684C179.133 40.824 179.166 40.7687 179.184 40.7078C179.202 40.647 179.205 40.5825 179.191 40.5205C179.177 40.4586 179.147 40.4012 179.105 40.3538C179.063 40.3064 179.009 40.2706 178.949 40.2497C178.828 40.2172 178.703 40.2037 178.578 40.2098H178.076V41.6549Z" fill="#969696"/>
<path fill-rule="evenodd" clip-rule="evenodd" d="M178.319 40.835V40.4003H178.586C178.665 40.3963 178.745 40.4042 178.822 40.4239C178.861 40.4397 178.895 40.4659 178.92 40.4998C178.946 40.5315 178.958 40.5715 178.958 40.6115C178.959 40.6421 178.953 40.6726 178.941 40.7005C178.928 40.7283 178.908 40.7526 178.884 40.7715C178.836 40.8114 178.742 40.834 178.606 40.834H178.319V40.835Z" fill="white"/>
<path fill-rule="evenodd" clip-rule="evenodd" d="M119.656 39.0965C119.87 39.2327 120.038 39.4283 120.038 39.7008V49.2382C120.038 49.5106 119.87 49.7062 119.656 49.8425H125.759V47.5779C125.529 47.8801 125.253 48.0603 124.701 48.0603H122.063V39.7008C122.063 39.4283 122.233 39.2327 122.447 39.0965H119.656ZM158.78 49.8425C158.565 49.7062 158.397 49.5106 158.397 49.2382V39.7008C158.397 39.4283 158.565 39.2327 158.78 39.0965H155.997C156.213 39.2327 156.381 39.4283 156.381 39.7008V49.2382C156.381 49.5106 156.213 49.7062 155.997 49.8425H158.78ZM127.843 39.0965C128.057 39.2327 128.227 39.4283 128.227 39.7008V49.2382C128.227 49.5106 128.057 49.7062 127.843 49.8425H133.947V47.5779C133.716 47.8801 133.441 48.0603 132.889 48.0603H130.252V39.7008C130.252 39.4283 130.42 39.2327 130.634 39.0965H127.843ZM7.23294 41.4491C7.96217 41.4491 8.32679 41.6888 8.63098 42.0872V39.0965H0C0.283705 39.2768 0.506982 39.5369 0.506982 39.8944V55.9457H3.18118V47.9426H5.65259C6.22 47.9426 6.56413 48.0829 6.88778 48.3809V45.1526C6.56413 45.4507 6.22 45.591 5.65259 45.591H3.18118V41.4501H7.23294V41.4491ZM168.272 49.8425V47.5779C168.041 47.8801 167.766 48.0603 167.214 48.0603H164.147V45.3134H166.018C166.446 45.3134 166.708 45.4199 166.954 45.6453V43.2005C166.708 43.4268 166.446 43.5323 166.018 43.5323H164.147V40.8755H167.214C167.766 40.8755 168.042 41.0578 168.272 41.36V39.0955H161.738C161.952 39.2317 162.123 39.4273 162.123 39.6997V49.2372C162.123 49.5096 161.952 49.7052 161.738 49.8414H168.272V49.8425ZM153.543 49.8404C153.312 49.6745 153.113 49.3887 152.991 48.4977C152.76 46.8374 151.719 45.1311 149.954 44.7388C151.196 44.4367 151.551 43.517 151.551 42.25C151.551 40.2876 150.033 38.8538 148.114 38.8538C147.378 38.8538 146.78 39.0955 146.412 39.0955C146.136 39.0955 145.906 39.0197 145.676 38.8538V49.2382C145.676 49.5086 145.508 49.7042 145.294 49.8404H148.085C147.871 49.7042 147.701 49.5086 147.701 49.2382V45.5254C149.771 45.9771 151.029 47.6373 151.029 49.1317C151.032 49.262 151.009 49.3917 150.962 49.5132C150.914 49.6347 150.843 49.7455 150.753 49.8394H153.543V49.8404Z" fill="#969696"/>
<path fill-rule="evenodd" clip-rule="evenodd" d="M147.704 40.8253C147.84 40.7493 147.995 40.7132 148.151 40.7209C149.068 40.7209 149.653 41.3989 149.653 42.2592C149.653 43.1349 149.069 43.7976 148.151 43.7976C147.995 43.8057 147.84 43.7695 147.704 43.6931V40.8253Z" fill="#F4F4F4"/>
<path fill-rule="evenodd" clip-rule="evenodd" d="M47.295 49.8425C47.0799 49.7062 46.9109 49.5106 46.9109 49.2382V39.7008C46.9109 39.4283 47.0799 39.2327 47.295 39.0965H44.5122C44.7273 39.2327 44.8963 39.4283 44.8963 39.7008V49.2382C44.8963 49.5106 44.7273 49.7062 44.5122 49.8425H47.295ZM86.2865 49.8425V47.5779C86.056 47.8801 85.7805 48.0603 85.2285 48.0603H82.162V45.3134H84.0322C84.4614 45.3134 84.7225 45.4199 84.9683 45.6453V43.2005C84.7225 43.4268 84.4624 43.5323 84.0322 43.5323H82.162V40.8755H85.2285C85.7805 40.8755 86.0571 41.0578 86.2865 41.36V39.0955H79.7541C79.9682 39.2317 80.1382 39.4273 80.1382 39.6997V49.2372C80.1382 49.5096 79.9692 49.7052 79.7541 49.8414H86.2865V49.8425ZM142.973 49.8425V47.5779C142.741 47.8801 142.467 48.0603 141.915 48.0603H138.847V45.3134H140.719C141.147 45.3134 141.409 45.4199 141.653 45.6453V43.2005C141.409 43.4268 141.147 43.5323 140.719 43.5323H138.847V40.8755H141.915C142.467 40.8755 142.742 41.0578 142.973 41.36V39.0955H136.44C136.654 39.2317 136.822 39.4273 136.822 39.6997V49.2372C136.822 49.5096 136.654 49.7052 136.44 49.8414H142.973V49.8425ZM77.6094 49.8404C77.379 49.6745 77.1803 49.3887 77.0574 48.4977C76.8269 46.8374 75.7843 45.1311 74.0206 44.7388C75.263 44.4367 75.6153 43.517 75.6153 42.25C75.6153 40.2876 74.0974 38.8538 72.1801 38.8538C71.4437 38.8538 70.8456 39.0955 70.4779 39.0955C70.2024 39.0955 69.9719 39.0197 69.7425 38.8538V49.2382C69.7425 49.5086 69.5735 49.7042 69.3584 49.8404H72.1494C71.9353 49.7042 71.7653 49.5086 71.7653 49.2382V45.5254C73.8352 45.9771 75.0929 47.6373 75.0929 49.1317C75.096 49.262 75.0732 49.3916 75.026 49.5131C74.9787 49.6345 74.9078 49.7454 74.8174 49.8394H77.6094V49.8404Z" fill="#969696"/>
<path fill-rule="evenodd" clip-rule="evenodd" d="M71.7705 40.8253C71.9058 40.7491 72.0599 40.7129 72.215 40.7208C73.1347 40.7208 73.7175 41.3988 73.7175 42.2591C73.7175 43.1348 73.1347 43.7975 72.215 43.7975C72.0599 43.8058 71.9057 43.7696 71.7705 43.693V40.8253Z" fill="#F4F4F4"/>
<path fill-rule="evenodd" clip-rule="evenodd" d="M30.7763 49.8404C30.5459 49.6745 30.3472 49.3887 30.2243 48.4977C29.9939 46.8374 28.9512 45.1311 27.1875 44.7388C28.4299 44.4367 28.7832 43.517 28.7832 42.25C28.7832 40.2876 27.2654 38.8538 25.3481 38.8538C24.6127 38.8538 24.0145 39.0955 23.6458 39.0955C23.3693 39.0955 23.1399 39.0197 22.9094 38.8538V49.2382C22.9094 49.5086 22.7404 49.7042 22.5264 49.8404H25.3173C25.1022 49.7042 24.9333 49.5086 24.9333 49.2382V45.5254C27.0032 45.9771 28.2609 47.6373 28.2609 49.1317C28.2638 49.262 28.2409 49.3917 28.1934 49.5132C28.146 49.6347 28.0749 49.7455 27.9844 49.8394H30.7763V49.8404Z" fill="#969696"/>
<path fill-rule="evenodd" clip-rule="evenodd" d="M24.937 40.8252C25.0727 40.7491 25.2272 40.7129 25.3825 40.7208C26.3023 40.7208 26.8851 41.3988 26.8851 42.2591C26.8851 43.1348 26.3033 43.7975 25.3825 43.7975C25.2271 43.8059 25.0725 43.7696 24.937 43.693V40.8252Z" fill="#F4F4F4"/>
<path fill-rule="evenodd" clip-rule="evenodd" d="M99.564 47.3045C99.1882 47.3045 98.9444 47.2184 98.6801 46.8927V50.0678C98.9444 49.7421 99.1882 49.656 99.564 49.656H102.679V52.8024C102.679 53.3329 100.752 53.6064 100.156 53.6064C96.8417 53.6064 94.4492 50.7601 94.4492 47.5636C94.4492 44.409 96.8632 41.8209 100.156 41.8209C101.416 41.8209 102.628 42.3207 103.579 42.8656V39.4713C103.532 39.578 103.455 39.6683 103.356 39.7304C103.258 39.7924 103.143 39.8235 103.027 39.8196C102.827 39.8196 102.257 39.712 101.77 39.626C101.275 39.5324 100.772 39.481 100.268 39.4724C95.6024 39.4724 92.0156 43.0847 92.0156 47.5656C92.0156 52.0465 95.6024 55.959 100.268 55.959C102.765 55.959 105.065 54.8723 105.065 54.3111V47.3075H99.564V47.3045ZM45.8455 32.5016V29.1945C45.3068 29.599 45.1009 29.6482 44.049 29.6482H39.7638V17.5267C39.7638 16.4912 39.8406 16.1881 40.3025 15.6831H36.1196C36.5826 16.1881 36.685 16.4912 36.685 17.5267V30.6581C36.685 31.7191 36.5826 31.9967 36.1196 32.5016H45.8455ZM60.4302 28.9394L61.4308 31.3135C61.5076 31.4897 61.5588 31.6915 61.5588 31.8441C61.5588 32.0715 61.5076 32.223 61.2762 32.5006H65.8697C65.1763 31.8441 64.74 31.2132 64.3303 30.3037L57.4528 15L50.5763 30.3037C50.1656 31.2132 49.7293 31.8441 49.0369 32.5006H53.6305C53.399 32.223 53.3222 32.0715 53.3222 31.8441C53.3222 31.6925 53.3734 31.4907 53.4502 31.3135L54.5021 28.9394H60.4302Z" fill="#969696"/>
<path fill-rule="evenodd" clip-rule="evenodd" d="M57.4526 21.8181L59.3003 26.2376H55.605L57.4526 21.8181Z" fill="#F4F4F4"/>
<path fill-rule="evenodd" clip-rule="evenodd" d="M70.6141 26.0421V22.0938C70.1625 22.611 69.9003 22.7083 69.1393 22.7083H65.1899V26.6238C65.6416 26.1383 65.9038 26.0421 66.6648 26.0421H70.6141ZM88.7436 26.0421V22.0938C88.2919 22.611 88.0297 22.7083 87.2687 22.7083H83.3194V26.6238C83.7711 26.1383 84.0333 26.0421 84.7943 26.0421H88.7436Z" fill="#969696"/>
<path fill-rule="evenodd" clip-rule="evenodd" d="M72.3102 15.6831V18.9657C72.7977 18.6625 73.3877 18.5365 74.3115 18.5365H78.52L78.2639 18.9913L77.8276 19.7492C77.6228 20.1026 77.4169 20.4815 77.0062 21.2138L70.8477 32.5016H83.3706V29.1176C82.8063 29.5468 82.3188 29.6481 81.0866 29.6481H75.9031C76.4072 28.8552 76.8864 28.0467 77.3401 27.2239L83.6523 15.6831H72.3102ZM91.8664 15.3287V30.657C91.8664 31.7437 91.7886 31.9956 91.3266 32.5006H94.8438C97.7423 32.5006 98.9488 32.2476 100.181 31.3391C101.669 30.278 102.492 28.6362 102.492 26.7425C102.492 25.0505 101.797 23.6115 100.592 22.7778C101.131 21.9953 101.336 21.3644 101.336 20.4293C101.336 17.4744 99.0533 15.3287 95.8454 15.3287C95.2926 15.3427 94.7424 15.4103 94.2026 15.5305L93.4324 15.7077C93.2286 15.7579 93.0227 15.7835 92.8158 15.7835C92.4307 15.7825 92.2771 15.7077 91.8664 15.3287Z" fill="#969696"/>
<path fill-rule="evenodd" clip-rule="evenodd" d="M94.9429 29.6226V18.4352C95.4314 18.3082 95.6373 18.2581 95.9456 18.2581C97.2801 18.2581 98.3576 19.3191 98.3576 20.6322C98.3576 21.768 97.741 22.5515 96.303 23.2838C98.4078 24.0919 99.3316 25.1018 99.3316 26.6422C99.3316 27.5773 98.9219 28.4346 98.2295 28.9405C97.5351 29.4465 97.023 29.5725 95.3812 29.597C95.2768 29.6226 95.1487 29.6226 94.9429 29.6226Z" fill="#F4F4F4"/>
<path fill-rule="evenodd" clip-rule="evenodd" d="M114.119 32.9738C119.097 32.9738 123.152 29.0593 123.152 24.2107C123.152 19.3621 119.123 15.422 114.144 15.422C109.191 15.422 105.162 19.3621 105.162 24.2107C105.162 29.0593 109.191 32.9738 114.119 32.9738Z" fill="#969696"/>
<path fill-rule="evenodd" clip-rule="evenodd" d="M114.145 29.9442C110.936 29.9442 108.319 27.3683 108.319 24.2117C108.319 21.0551 110.936 18.4792 114.145 18.4792C117.377 18.4792 119.97 21.0551 119.996 24.2117C119.996 27.3929 117.377 29.9442 114.145 29.9442Z" fill="#F4F4F4"/>
<path fill-rule="evenodd" clip-rule="evenodd" d="M129.692 21.7188L126.997 17.199C126.794 16.8702 126.639 16.4667 126.639 16.2639C126.639 15.9863 126.715 15.8604 126.997 15.6842H121.916C122.481 16.0632 122.867 16.4923 123.533 17.578L128.152 24.8263V30.6591C128.152 31.7202 128.076 31.9977 127.614 32.5027H131.797C131.308 31.9977 131.233 31.7202 131.233 30.6591V24.8263L135.852 17.578C136.52 16.4923 136.904 16.0632 137.468 15.6842H132.387C132.669 15.8604 132.747 15.9874 132.747 16.2393C132.747 16.4667 132.594 16.8456 132.387 17.2L129.692 21.7188ZM117.729 49.8425C117.468 49.5896 117.26 49.287 117.117 48.9524L112.732 39.0965L108.35 48.9524C108.207 49.2872 107.999 49.5898 107.737 49.8425H110.544C110.419 49.707 110.351 49.5289 110.353 49.3447C110.367 49.0723 110.595 48.5284 110.767 48.1362L111.203 47.0659H114.261L114.698 48.1362C114.87 48.5284 115.098 49.0723 115.112 49.3447C115.114 49.529 115.046 49.7072 114.921 49.8425H117.729Z" fill="#969696"/>
<path fill-rule="evenodd" clip-rule="evenodd" d="M111.937 45.2643L112.732 43.3019L113.531 45.2643H111.937Z" fill="white"/>
<path fill-rule="evenodd" clip-rule="evenodd" d="M171.304 49.9726V47.5903C171.304 47.5903 171.386 47.9067 172.242 48.1904C173.369 48.5663 175.208 48.3041 175.208 46.9163C175.208 45.7139 173.705 44.8136 173.069 44.364C172.431 43.9144 171.304 42.9014 171.304 41.5874C171.304 39.6752 172.992 39.0371 174.157 39.0371C174.906 39.0371 175.507 39.4488 175.507 39.4488V41.5495C175.507 41.5495 175.242 40.7609 174.306 40.7609C173.48 40.7609 173.219 41.063 173.219 41.6632C173.219 41.9633 173.405 42.3371 175.131 43.5754C176.857 44.8136 177.007 46.014 177.007 46.8405C177.007 47.8903 176.331 49.9736 173.292 49.9736H171.304V49.9726ZM177.12 53.7437V51.7936H107.932V53.7437H177.12ZM86.0187 53.7437V51.7936H11.8765V53.7437H86.0187ZM49.7977 39.1232V41.5218C49.9329 41.3078 50.1295 41.1378 50.4009 41.1378H51.8V49.2392C51.8 49.5117 51.632 49.7073 51.417 49.8435H54.1997C53.9857 49.7073 53.8167 49.5117 53.8167 49.2392V41.1378H55.2168C55.4882 41.1378 55.6848 41.3078 55.82 41.5218V39.1232H49.7977ZM39.0988 39.0965C39.3139 39.2327 39.4829 39.4284 39.4829 39.7008V45.8378L33.5364 39.0986V49.2403C33.5364 49.5106 33.3674 49.7063 33.1533 49.8425H35.9361C35.721 49.7063 35.552 49.5106 35.552 49.2403V43.8273L41.4986 50.4427V39.7008C41.4986 39.4284 41.6675 39.2327 41.8826 39.0965H39.0988ZM11.6348 45.8655C11.6348 45.8337 11.6348 45.8962 11.6348 45.8655V45.8655ZM19.4648 45.8655C19.4648 45.8337 19.4658 45.8962 19.4648 45.8655V45.8655Z" fill="#969696"/>
<path fill-rule="evenodd" clip-rule="evenodd" d="M19.8697 39.0966H17.0869C17.302 39.2328 17.5089 39.4284 17.5089 39.7008V45.8666C17.5089 46.9225 16.6076 47.8525 15.5496 47.8525C14.4926 47.8525 13.6333 46.9225 13.6333 45.8666V39.7008C13.6333 39.4284 13.7982 39.2328 14.0123 39.0966H11.2295C11.4436 39.2328 11.6341 39.4284 11.6341 39.7008V45.8666C11.6341 48.0174 13.3977 49.8333 15.5486 49.8333C17.7004 49.8333 19.4641 48.0174 19.4641 45.8666V39.7008C19.4651 39.4284 19.6546 39.2328 19.8697 39.0966ZM66.893 39.0966H64.1113C64.3253 39.2328 64.5332 39.4284 64.5332 39.7008V45.8666C64.5332 46.9225 63.6319 47.8525 62.575 47.8525C61.517 47.8525 60.6587 46.9225 60.6587 45.8666V39.7008C60.6587 39.4284 60.8236 39.2328 61.0376 39.0966H58.2549C58.4689 39.2328 58.6604 39.4284 58.6604 39.7008V45.8666C58.6604 48.0174 60.4241 49.8333 62.575 49.8333C64.7258 49.8333 66.4895 48.0174 66.4895 45.8666V39.7008C66.4884 39.4284 66.679 39.2328 66.893 39.0966Z" fill="#969696"/>
</svg>
