<svg width="180" height="70" viewBox="0 0 180 70" fill="none" xmlns="http://www.w3.org/2000/svg">
<path fill-rule="evenodd" clip-rule="evenodd" d="M0 39.8216V18.001H11.4319V21.3652H4.65088V26.9404H11.1423V30.3056H4.65088V39.8216H0ZM19.7638 38.2836H19.6667C18.795 39.6297 17.6318 40.2063 16.0818 40.2063C14.0469 40.2063 12.2064 38.9567 12.2064 36.8431V24.6339H16.4696V35.2087C16.4696 36.5529 16.7601 37.5152 18.1157 37.5152C19.4714 37.5152 19.7629 36.5529 19.7629 35.2087V24.6339H24.026V36.8421C24.026 37.8044 24.1232 38.8612 24.2194 39.8216H19.7629V38.2836H19.7638ZM29.7429 24.6339V26.5566C30.5184 24.8268 31.9703 24.2492 33.7146 24.2492V28.0936C29.9363 27.8053 29.9363 30.0163 29.9363 31.5543V39.8216H25.577V24.6339H29.7429ZM38.8484 26.1719H38.9456C39.7211 24.7304 40.8833 24.2492 42.5305 24.2492C44.5654 24.2492 46.4059 25.4989 46.4059 27.6134V39.8216H42.0465V29.3442C42.0465 27.9982 41.8522 26.9404 40.4966 26.9404C39.0428 26.9404 38.8494 27.9972 38.8494 29.3442V39.8216H34.5863V24.6339H38.8494V26.1719H38.8484ZM48.0521 24.6339H52.3152V39.8216H48.0521V24.6339ZM48.0521 18.001H52.3152V21.3652H48.0521V18.001ZM52.8963 24.6339H54.5425V22.1346L58.9019 20.3084V24.6339H61.1302V27.2287H58.9019V35.4006C58.9019 36.5529 58.9019 37.3233 60.2585 37.3233C60.549 37.3233 60.8396 37.3233 61.0339 37.2259V39.8216C60.4528 39.919 59.8717 40.0135 58.8057 40.0135C55.1246 40.0135 54.5425 37.5152 54.5425 36.6502V27.2287H52.8963V24.6339ZM69.3659 38.2836H69.2687C68.4942 39.6297 67.331 40.2063 65.6839 40.2063C63.6499 40.2063 61.8094 38.9567 61.8094 36.8431V24.6339H66.1688V35.2087C66.1688 36.5529 66.3622 37.5152 67.7188 37.5152C69.0753 37.5152 69.3659 36.5529 69.3659 35.2087V24.6339H73.6281V36.8421C73.6281 37.8044 73.7253 38.8612 73.8215 39.8216H69.3659V38.2836ZM79.9251 24.6339V26.5566H80.0223C80.7978 24.8268 82.2506 24.2492 83.9949 24.2492V28.0936C80.2167 27.8053 80.1195 30.0163 80.1195 31.5543V39.8216H75.8573V24.6339H79.9251Z" fill="#969696"/>
<path fill-rule="evenodd" clip-rule="evenodd" d="M88.1603 32.9013C88.1603 34.7285 88.1603 37.4187 90.098 37.4187C91.648 37.4187 91.9395 35.9772 91.9395 34.7285H96.2989C96.2008 36.3619 95.6206 37.708 94.6508 38.6684C93.5857 39.6306 92.1329 40.2063 90.098 40.2063C84.5764 40.2063 83.801 36.843 83.801 32.0363C83.801 27.8063 84.3821 24.2502 90.098 24.2502C95.9102 24.2502 96.4923 27.9991 96.3951 32.9013H88.1603ZM92.0348 30.4974C92.0348 29.0549 92.1329 26.9404 90.0971 26.9404C88.0631 26.9404 88.1594 29.2478 88.1594 30.4974H92.0348ZM104.049 39.8216V18.001H112.187C115.673 18.001 118.581 19.0578 118.581 23.6716C118.581 26.1709 117.321 27.9972 114.801 28.4783V28.5748C118.096 28.9585 118.967 31.074 118.967 34.0535C118.967 39.6287 114.125 39.8216 112.187 39.8216H104.049ZM108.601 36.4583H111.217C112.187 36.4583 114.318 36.4583 114.318 33.3815C114.318 31.4588 113.64 30.3055 111.316 30.3055H108.602V36.4583H108.601ZM108.601 26.9404H111.702C112.67 26.9404 114.125 26.2673 114.125 24.1528C114.125 22.5184 112.962 21.3652 111.412 21.3652H108.602V26.9404H108.601ZM124.005 24.6339V26.5566H124.103C124.878 24.8268 126.331 24.2492 128.076 24.2492V28.0936C124.297 27.8053 124.199 30.0163 124.199 31.5542V39.8216H119.937V24.6339H124.005ZM140.476 37.034C140.476 37.9963 140.669 38.9567 140.765 39.8216H136.696L136.503 37.8044C135.533 39.4378 134.275 40.2063 132.434 40.2063C129.429 40.2063 128.364 37.9972 128.364 35.3041C128.364 30.2101 132.337 30.0172 136.31 30.1137V28.9595C136.31 27.6144 136.116 26.653 134.566 26.653C133.111 26.653 132.918 27.8063 132.918 28.9595H128.752C128.752 27.1332 129.334 25.98 130.302 25.307C131.272 24.5385 132.725 24.2502 134.372 24.2502C139.797 24.2502 140.476 26.654 140.476 29.4416V37.034ZM132.628 35.1113C132.628 36.1681 132.725 37.5151 134.178 37.5151C136.696 37.5151 136.31 34.15 136.31 32.5156C134.178 32.612 132.628 32.4201 132.628 35.1113ZM145.901 26.1719H145.997C146.869 24.7303 148.032 24.2492 149.583 24.2492C151.714 24.2492 153.457 25.4988 153.457 27.6134V39.8216H149.192V29.3442C149.192 27.9981 148.903 26.9404 147.546 26.9404C146.19 26.9404 145.9 27.9972 145.9 29.3442V39.8216H141.636V24.6339H145.9V26.1719H145.901ZM162.756 39.8216V38.1882H162.658C161.884 39.6297 160.72 40.2054 159.074 40.2054C154.617 40.2054 154.715 35.3032 154.715 32.1309C154.715 29.054 154.617 24.2482 158.977 24.2482C160.527 24.2482 161.593 24.7284 162.465 26.0745V18H166.824V39.8206H162.756V39.8216ZM162.465 32.1318C162.465 29.0549 162.563 26.9404 160.819 26.9404C158.881 26.9404 158.977 29.0549 158.977 32.1318C158.977 35.8798 159.269 37.5151 160.819 37.5151C162.271 37.5151 162.465 35.8798 162.465 32.1318ZM172.445 34.9194C172.347 35.6879 172.445 36.3609 172.638 36.8421C172.832 37.3232 173.316 37.5151 174.188 37.5151C175.06 37.5151 175.736 36.9385 175.736 35.9772C175.736 32.7084 168.18 33.4779 168.18 28.5757C168.18 25.307 171.474 24.2502 174.283 24.2502C177.19 24.2502 179.806 25.6926 179.613 28.9604H175.447C175.447 27.9036 175.253 27.327 174.962 27.0378C174.67 26.7494 174.381 26.654 173.897 26.654C172.927 26.654 172.444 27.327 172.444 28.2874C172.444 30.6903 180 30.5948 180 35.497C180 38.1891 177.772 40.2073 174.188 40.2073C170.505 40.2073 167.987 39.2469 168.181 34.9213H172.445V34.9194ZM0.775879 44.6283H2.13247V50.8765H0.775879V44.6283ZM11.3361 44.6283H13.2728L16.8577 49.435V44.6283H18.2143V50.8765H16.2766L12.5955 45.9744V50.8765H11.3361V44.6283ZM32.7461 44.6283V45.686H30.3245V50.8765H28.9679V45.686H26.5453V44.6283H32.7461ZM46.1148 45.686H42.4337V47.1266H45.9214V48.1844H42.4337V49.9142H46.2119V50.8765H41.0771V44.6283H46.1148V45.686ZM55.125 44.6283H58.9032C60.2598 44.6283 61.3259 45.1094 61.3259 46.3581C61.3259 47.4149 60.5504 47.8961 59.5825 47.8961V47.9915C61.0353 47.9915 61.1325 48.6646 61.2287 49.8188C61.2287 50.2999 61.3259 50.6837 61.423 50.8756H59.8731C59.7759 50.6837 59.7759 50.299 59.7759 49.9133C59.6787 48.6636 59.3882 48.4717 58.0325 48.4717H56.4826V50.8756H55.126V44.6283H55.125ZM56.4816 47.4159H58.3221C59.1938 47.4159 59.8721 47.3185 59.8721 46.551C59.8721 45.7834 59.1938 45.686 58.4193 45.686H56.4816V47.4159ZM70.238 44.6283H72.2729L75.8567 49.435V44.6283H77.1162V50.8765H75.1785L71.4974 45.9744V50.8765H70.238V44.6283ZM88.6443 44.6283H90.3876L93.6819 50.8765H91.9386L91.2603 49.5305H87.5782L86.8999 50.8765H85.4471L88.6443 44.6283ZM90.7763 48.4736L89.4197 45.7834L88.1603 48.4736H90.7763ZM107.536 44.6283V45.686H105.114V50.8765H103.757V45.686H101.337V44.6283H107.536ZM116.062 44.6283H117.416V50.8765H116.062V44.6283ZM130.012 44.4364C132.337 44.4364 133.694 45.5887 133.694 47.7997C133.694 50.0107 132.337 51.0684 130.012 51.0684C127.686 51.0684 126.331 50.0116 126.331 47.7997C126.331 45.5877 127.686 44.4364 130.012 44.4364ZM130.012 50.0116C131.367 50.0116 132.239 49.2431 132.239 47.8006C132.239 46.2627 131.367 45.4942 130.012 45.4942C128.656 45.4942 127.784 46.2627 127.784 47.8006C127.783 49.2431 128.656 50.0116 130.012 50.0116ZM142.413 44.6283H144.446L148.031 49.435V44.6283H149.29V50.8765H147.449L143.768 45.9744H143.672V50.8765H142.413V44.6283ZM160.819 44.6283H162.658L165.856 50.8765H164.208L163.434 49.5305H159.848L159.171 50.8765H157.621L160.819 44.6283ZM162.95 48.4736L161.593 45.7834L160.334 48.4736H162.95ZM174.189 44.6283H175.544V49.9142H179.031V50.8765H174.189V44.6283Z" fill="#969696"/>
</svg>
