<svg width="23" height="21" viewBox="0 0 23 21" fill="none" xmlns="http://www.w3.org/2000/svg">
<path d="M21.9999 1.40039L19.5764 2.92378L19.1533 4.82438M16.7375 15.6767V17.3887H4.25993M16.7375 15.6767L15.0479 15.4352M16.7375 15.6767L17.5417 12.0641M19.1533 4.82438H15.0479M19.1533 4.82438L18.404 8.19034M15.0479 4.82438V15.4352M15.0479 4.82438H11.3504M15.0479 15.4352L11.3504 14.9068M11.3504 4.82438V14.9068M11.3504 4.82438H7.72207M11.3504 14.9068L7.72207 14.3883M7.72207 4.82438V14.3883M7.72207 4.82438H4.20454M7.72207 14.3883L4.20454 13.8856M4.20454 4.82438H0.687012L1.53747 8.19034M4.20454 4.82438V13.8856M4.20454 13.8856L2.93047 13.7035L2.51624 12.0641M1.53747 8.19034H18.404M1.53747 8.19034L2.51624 12.0641M18.404 8.19034L17.5417 12.0641M2.51624 12.0641H17.5417" stroke="#646464" stroke-linecap="round" stroke-linejoin="round"/>
<path d="M7.13161 18.8532C7.13161 19.6399 6.52924 20.2366 5.83558 20.2366C5.14193 20.2366 4.53955 19.6399 4.53955 18.8532C4.53955 18.0665 5.14193 17.4697 5.83558 17.4697C6.52924 17.4697 7.13161 18.0665 7.13161 18.8532Z" stroke="#646464"/>
<path d="M16.3911 18.8532C16.3911 19.6293 15.781 20.2366 15.0552 20.2366C14.3293 20.2366 13.7192 19.6293 13.7192 18.8532C13.7192 18.077 14.3293 17.4697 15.0552 17.4697C15.781 17.4697 16.3911 18.077 16.3911 18.8532Z" stroke="#646464"/>
</svg>
