<svg width="32" height="32" viewBox="0 0 32 32" fill="none" xmlns="http://www.w3.org/2000/svg">
<path d="M3.1242 7.71983C3.1662 7.35784 3.3272 7.0178 3.6042 6.69869L7.4442 2.86945C7.7432 2.61417 7.9672 2.65705 8.1162 2.99709L11.2202 8.80478C11.3912 9.14482 11.3372 9.4749 11.0602 9.794L9.6522 11.1981C9.3962 11.4533 9.2472 11.7834 9.2042 12.1873C9.2042 12.8255 9.5352 13.6442 10.1962 14.6444C10.8572 15.6446 11.5082 16.4952 12.1482 17.1982L13.1402 18.2183C13.4392 18.5165 13.8222 18.8835 14.2932 19.3192C14.7622 19.755 15.5352 20.3294 16.6122 21.0424C17.6892 21.7554 18.5382 22.1114 19.1562 22.1114C19.5612 22.1114 19.9032 21.9728 20.1802 21.6966L21.8452 20.0372C22.1442 19.7391 22.4632 19.6962 22.8042 19.9096L28.4052 23.1964C28.5542 23.2821 28.6402 23.3928 28.6612 23.5314C28.6822 23.67 28.6402 23.7927 28.5332 23.8984L24.6932 27.7276C24.3732 28.0038 24.0312 28.1644 23.6702 28.2053C22.6242 28.3549 21.4452 28.2113 20.1332 27.7745C18.8212 27.3377 17.6062 26.7583 16.4862 26.0354C15.3662 25.3124 14.3262 24.5785 13.3662 23.8346C12.4062 23.0897 11.6382 22.4514 11.0622 21.9199L10.2302 21.1212C10.0172 20.9088 9.7342 20.6166 9.3822 20.2436C9.0302 19.8707 8.4152 19.1388 7.5402 18.0428C6.6652 16.9469 5.9082 15.8779 5.2682 14.8358C4.6282 13.7938 4.0742 12.6071 3.6042 11.2778C3.1352 9.94856 2.9752 8.7619 3.1242 7.71983Z" fill="white"/>
</svg>
