<svg width="32" height="32" viewBox="0 0 32 32" fill="none" xmlns="http://www.w3.org/2000/svg">
<rect x="0.5" y="0.5" width="31" height="31" stroke="white"/>
<g clip-path="url(#clip0_483_247)">
<path d="M24.7793 10.7049C24.1123 10.9894 23.4049 11.1761 22.6806 11.2589C23.4351 10.8235 24.0144 10.134 24.2872 9.31247C23.5699 9.72228 22.7852 10.011 21.9669 10.1662C21.3003 9.48248 20.3507 9.05518 19.2997 9.05518C17.2817 9.05518 15.6455 10.6304 15.6455 12.5733C15.6455 12.849 15.6779 13.1175 15.7402 13.3751C12.7033 13.2283 10.0109 11.8277 8.2086 9.69918C7.89413 10.2188 7.71394 10.8232 7.71394 11.4679C7.71394 12.6885 8.35908 13.7653 9.3395 14.3962C8.75923 14.3787 8.19173 14.2278 7.68437 13.9561C7.68416 13.9708 7.68416 13.9856 7.68416 14.0004C7.68416 15.705 8.9437 17.1269 10.6152 17.4501C10.0772 17.591 9.51275 17.6117 8.96513 17.5104C9.43008 18.9082 10.7796 19.9253 12.3785 19.9537C11.1279 20.8973 9.55232 21.4598 7.84042 21.4598C7.54544 21.4598 7.25462 21.4431 6.96875 21.4106C8.58582 22.4088 10.5065 22.9913 12.57 22.9913C19.2912 22.9913 22.9665 17.6303 22.9665 12.9813C22.9665 12.8287 22.963 12.677 22.9559 12.5261C23.6713 12.0282 24.2887 11.4115 24.7793 10.7049Z" fill="white"/>
</g>
<defs>
<clipPath id="clip0_483_247">
<rect width="18" height="14" fill="white" transform="translate(7 9)"/>
</clipPath>
</defs>
</svg>
